<svg width="167" height="92" viewBox="0 0 167 92" fill="none" xmlns="http://www.w3.org/2000/svg">
<path d="M10.0936 0.559998H23.4536C26.2003 0.559998 28.3069 1.32 29.7736 2.84C31.2403 4.36 31.9736 6.38667 31.9736 8.92C31.9736 11.5067 31.2003 13.5867 29.6536 15.16C28.1336 16.7067 26.0669 17.48 23.4536 17.48H13.8936V28H10.0936V0.559998ZM23.2536 14.16C24.7469 14.16 25.9336 13.6933 26.8136 12.76C27.6936 11.8267 28.1336 10.56 28.1336 8.96C28.1336 7.33333 27.7203 6.08 26.8936 5.2C26.0669 4.32 24.8536 3.88 23.2536 3.88H13.8936V14.16H23.2536ZM36.2933 6.96H38.9733L39.3733 10.12H39.6133C40.0133 9.08 40.6133 8.21333 41.4133 7.52C42.2133 6.82667 43.2666 6.48 44.5733 6.48C45.2933 6.48 45.9199 6.58666 46.4533 6.8V10.2H44.9733C43.4799 10.2 42.2399 10.64 41.2533 11.52C40.2933 12.3733 39.8133 13.72 39.8133 15.56V28H36.2933V6.96ZM58.0536 28.48C54.8269 28.48 52.4003 27.5867 50.7736 25.8C49.1469 23.9867 48.3336 21.2133 48.3336 17.48C48.3336 13.7467 49.1469 10.9867 50.7736 9.2C52.4003 7.38667 54.8269 6.48 58.0536 6.48C61.2803 6.48 63.7069 7.38667 65.3336 9.2C66.9603 10.9867 67.7736 13.7467 67.7736 17.48C67.7736 21.2133 66.9603 23.9867 65.3336 25.8C63.7069 27.5867 61.2803 28.48 58.0536 28.48ZM58.0536 25.56C60.1869 25.56 61.7336 24.9467 62.6936 23.72C63.6536 22.4667 64.1336 20.44 64.1336 17.64V17.32C64.1336 14.52 63.6536 12.5067 62.6936 11.28C61.7336 10.0267 60.1869 9.4 58.0536 9.4C55.9203 9.4 54.3736 10.0267 53.4136 11.28C52.4536 12.5067 51.9736 14.52 51.9736 17.32V17.64C51.9736 20.44 52.4536 22.4667 53.4136 23.72C54.3736 24.9467 55.9203 25.56 58.0536 25.56ZM71.8402 6.96H74.4802L74.9202 9.8H75.1602C75.8535 8.70667 76.7602 7.88 77.8802 7.32C79.0268 6.76 80.2935 6.48 81.6802 6.48C84.3468 6.48 86.4002 7.37333 87.8402 9.16C89.2802 10.9467 90.0002 13.72 90.0002 17.48C90.0002 21.16 89.2802 23.92 87.8402 25.76C86.4268 27.5733 84.4802 28.48 82.0002 28.48C80.5068 28.48 79.2402 28.2533 78.2002 27.8C77.1602 27.3467 76.2935 26.6133 75.6002 25.6H75.3602V34.92H71.8402V6.96ZM80.8002 25.56C82.1602 25.56 83.2402 25.3067 84.0402 24.8C84.8402 24.2933 85.4268 23.4667 85.8002 22.32C86.1735 21.1733 86.3602 19.6133 86.3602 17.64V17.48C86.3602 15.48 86.1735 13.8933 85.8002 12.72C85.4268 11.5467 84.8268 10.7067 84.0002 10.2C83.2002 9.66667 82.1335 9.4 80.8002 9.4C78.9335 9.4 77.5602 10.08 76.6802 11.44C75.8002 12.8 75.3602 14.8133 75.3602 17.48V17.64C75.3602 20.2533 75.7868 22.2267 76.6402 23.56C77.5202 24.8933 78.9068 25.56 80.8002 25.56ZM102.987 28.48C99.6001 28.48 97.0801 27.5867 95.4267 25.8C93.7734 24.0133 92.9467 21.24 92.9467 17.48C92.9467 13.72 93.7734 10.9467 95.4267 9.16C97.0801 7.37333 99.6001 6.48 102.987 6.48C106.027 6.48 108.293 7.29333 109.787 8.92C111.307 10.52 112.067 13.1067 112.067 16.68V18.44H96.5867C96.7201 20.8667 97.2934 22.6667 98.3067 23.84C99.3467 24.9867 100.907 25.56 102.987 25.56C104.667 25.56 106.027 25.1733 107.067 24.4C108.107 23.6267 108.627 22.44 108.627 20.84H112.067C112.067 23.2933 111.213 25.1867 109.507 26.52C107.827 27.8267 105.653 28.48 102.987 28.48ZM108.387 15.52C108.387 11.44 106.587 9.4 102.987 9.4C100.987 9.4 99.4801 9.88 98.4667 10.84C97.4801 11.8 96.8801 13.36 96.6667 15.52H108.387ZM116.293 6.96H118.973L119.373 10.12H119.613C120.013 9.08 120.613 8.21333 121.413 7.52C122.213 6.82667 123.267 6.48 124.573 6.48C125.293 6.48 125.92 6.58666 126.453 6.8V10.2H124.973C123.48 10.2 122.24 10.64 121.253 11.52C120.293 12.3733 119.813 13.72 119.813 15.56V28H116.293V6.96ZM134.374 28.44C132.934 28.44 131.88 28.0133 131.214 27.16C130.547 26.3067 130.214 25.2533 130.214 24V9.88H127.654V6.96H130.254L131.014 1.12H133.734V6.96H137.294V9.88H133.734V23.68C133.734 24.9333 134.32 25.56 135.494 25.56H137.294V27.88C136.947 28.04 136.494 28.1733 135.934 28.28C135.374 28.3867 134.854 28.44 134.374 28.44ZM142.746 35.28C141.573 35.28 140.64 35.1733 139.946 34.96V32.68H141.346C144.066 32.68 145.853 31.12 146.706 28L138.586 6.96H142.306L146.226 17.48C146.786 18.9733 147.546 21.1733 148.506 24.08H148.706C149.48 21.36 150.133 19.16 150.666 17.48L154.026 6.96H157.546L150.626 26.92C149.693 29.5867 148.626 31.64 147.426 33.08C146.253 34.5467 144.693 35.28 142.746 35.28Z" fill="white"/>
<path d="M0.726875 56.56H12.0869C16.2735 56.56 19.5002 57.7067 21.7669 60C24.0602 62.2667 25.2069 65.6933 25.2069 70.28C25.2069 74.8667 24.0602 78.3067 21.7669 80.6C19.5002 82.8667 16.2735 84 12.0869 84H0.726875V56.56ZM12.0869 79.08C14.4335 79.08 16.2069 78.3733 17.4069 76.96C18.6335 75.52 19.2469 73.4933 19.2469 70.88V69.68C19.2469 67.0667 18.6335 65.0533 17.4069 63.64C16.2069 62.2 14.4335 61.48 12.0869 61.48H6.52688V79.08H12.0869ZM29.7141 55.08H35.1941V60.28H29.7141V55.08ZM29.7141 62.96H35.1941V84H29.7141V62.96ZM38.4069 62.96H44.1269L47.4069 72C47.7802 73.0133 48.3669 75.12 49.1669 78.32H49.3669C50.1135 75.3067 50.7002 73.2 51.1269 72L54.3669 62.96H59.9269L52.0469 84H46.2469L38.4069 62.96ZM71.7934 84.48C68.4068 84.48 65.8734 83.5867 64.1934 81.8C62.5401 80.0133 61.7134 77.24 61.7134 73.48C61.7134 69.72 62.5401 66.9467 64.1934 65.16C65.8734 63.3733 68.4068 62.48 71.7934 62.48C74.9134 62.48 77.2468 63.3867 78.7934 65.2C80.3401 66.9867 81.1134 69.7467 81.1134 73.48V74.76H67.2734C67.3268 76.6267 67.7001 78.0133 68.3934 78.92C69.0868 79.8 70.2468 80.24 71.8734 80.24C73.0201 80.24 73.9401 79.92 74.6334 79.28C75.3534 78.64 75.7134 77.7333 75.7134 76.56H81.1134C81.1134 79.2 80.2601 81.1867 78.5534 82.52C76.8468 83.8267 74.5934 84.48 71.7934 84.48ZM75.4334 71.12C75.4334 68.2133 74.2201 66.76 71.7934 66.76C70.4068 66.76 69.3534 67.12 68.6334 67.84C67.9401 68.56 67.5134 69.6533 67.3534 71.12H75.4334ZM85.34 62.96H90.02L90.46 66.36H90.74C91.1933 65.16 91.78 64.2133 92.5 63.52C93.22 62.8267 94.1667 62.48 95.34 62.48C96.1133 62.48 96.8067 62.6 97.42 62.84V67.96H95.9C94.1133 67.96 92.82 68.4533 92.02 69.44C91.22 70.4 90.82 71.8667 90.82 73.84V84H85.34V62.96ZM109.287 84.48C106.354 84.48 104.047 83.88 102.367 82.68C100.714 81.4533 99.8869 79.8267 99.8869 77.8L99.9269 77.32H105.247V77.6C105.274 78.5333 105.687 79.2133 106.487 79.64C107.314 80.04 108.314 80.24 109.487 80.24C110.58 80.24 111.514 80.0933 112.287 79.8C113.06 79.5067 113.447 79.0267 113.447 78.36C113.447 77.6133 113.047 77.0533 112.247 76.68C111.474 76.3067 110.247 75.9333 108.567 75.56C106.834 75.16 105.42 74.76 104.327 74.36C103.234 73.9333 102.287 73.28 101.487 72.4C100.687 71.52 100.287 70.3467 100.287 68.88C100.287 66.8267 101.14 65.2533 102.847 64.16C104.58 63.04 106.807 62.48 109.527 62.48C112.06 62.48 114.154 63 115.807 64.04C117.46 65.0533 118.287 66.44 118.287 68.2L118.247 69.12H112.927V68.88C112.927 68.1867 112.594 67.6533 111.927 67.28C111.287 66.9067 110.42 66.72 109.327 66.72C108.234 66.72 107.367 66.8667 106.727 67.16C106.087 67.4533 105.767 67.8667 105.767 68.4C105.767 69.0667 106.127 69.56 106.847 69.88C107.594 70.2 108.78 70.52 110.407 70.84C112.194 71.24 113.647 71.64 114.767 72.04C115.887 72.44 116.86 73.0933 117.687 74C118.514 74.9067 118.927 76.1333 118.927 77.68C118.927 82.2133 115.714 84.48 109.287 84.48ZM123.073 55.08H128.553V60.28H123.073V55.08ZM123.073 62.96H128.553V84H123.073V62.96ZM139.886 84.48C137.913 84.48 136.5 83.9467 135.646 82.88C134.793 81.8133 134.366 80.4667 134.366 78.84V67.44H131.846V62.96H134.486L135.406 57.04H139.846V62.96H143.486V67.44H139.846V78.28C139.846 79.4267 140.42 80 141.566 80H143.486V83.84C143.033 84 142.46 84.1467 141.766 84.28C141.1 84.4133 140.473 84.48 139.886 84.48ZM150.767 91.28C149.3 91.28 148.047 91.1067 147.007 90.76V86.92H149.607C150.54 86.92 151.3 86.6933 151.887 86.24C152.473 85.7867 152.953 85.04 153.327 84L145.087 62.96H150.807L154.767 72.84C155.167 73.88 155.66 75.7067 156.247 78.32H156.447C157.087 75.8667 157.58 74.0533 157.927 72.88L161.047 62.96H166.607L159.527 82.92C158.887 84.68 158.22 86.1467 157.527 87.32C156.833 88.52 155.927 89.48 154.807 90.2C153.713 90.92 152.367 91.28 150.767 91.28Z" fill="url(#paint0_linear_3734_20753)"/>
<defs>
<linearGradient id="paint0_linear_3734_20753" x1="-2" y1="-3" x2="170.481" y2="3.27221" gradientUnits="userSpaceOnUse">
<stop stop-color="#8AD4EC"/>
<stop offset="0.217372" stop-color="#EF96FF"/>
<stop offset="0.540308" stop-color="#FF56A9"/>
<stop offset="0.852826" stop-color="#FFAA6C"/>
</linearGradient>
</defs>
</svg>
