<svg width="157" height="94" viewBox="0 0 157 94" fill="none" xmlns="http://www.w3.org/2000/svg">
<path d="M50.1472 30.48C46.8139 30.48 44.0939 29.8133 41.9872 28.48C39.8805 27.1467 38.8272 25.0667 38.8272 22.24L38.8672 21.44H42.6272C42.5739 21.8133 42.5472 22.0933 42.5472 22.28C42.5472 23.9067 43.2139 25.1467 44.5472 26C45.9072 26.8267 47.7072 27.24 49.9472 27.24C52.4539 27.24 54.3739 26.8533 55.7072 26.08C57.0405 25.28 57.7072 24.1467 57.7072 22.68C57.7072 21.6933 57.3605 20.88 56.6672 20.24C55.9739 19.5733 55.0939 19.0533 54.0272 18.68C52.9872 18.3067 51.5739 17.8933 49.7872 17.44C47.5739 16.88 45.7872 16.3467 44.4272 15.84C43.0672 15.3067 41.9072 14.5333 40.9472 13.52C39.9872 12.48 39.5072 11.12 39.5072 9.44C39.5072 7.04 40.5072 5.21333 42.5072 3.96C44.5072 2.70667 47.0672 2.08 50.1872 2.08C53.3072 2.08 55.8405 2.72 57.7872 4C59.7339 5.25333 60.7072 7.18667 60.7072 9.8V10.28H56.9872V9.68C56.9872 8.32 56.3605 7.25333 55.1072 6.48C53.8805 5.70667 52.2805 5.32 50.3072 5.32C48.2005 5.32 46.5072 5.64 45.2272 6.28C43.9739 6.92 43.3472 7.88 43.3472 9.16C43.3472 10.0933 43.6805 10.8533 44.3472 11.44C45.0405 12.0267 45.8805 12.5067 46.8672 12.88C47.8805 13.2267 49.2805 13.6267 51.0672 14.08C53.2805 14.64 55.0805 15.1867 56.4672 15.72C57.8805 16.2533 59.0672 17.04 60.0272 18.08C61.0139 19.0933 61.5072 20.4267 61.5072 22.08C61.5072 25.0133 60.4805 27.1467 58.4272 28.48C56.4005 29.8133 53.6405 30.48 50.1472 30.48ZM71.9469 30.48C70.1335 30.48 68.5202 30.0533 67.1069 29.2C65.6935 28.3467 64.9869 26.8 64.9869 24.56C64.9869 21.8667 66.1869 20.0267 68.5869 19.04C70.9869 18.0267 74.4535 17.52 78.9869 17.52V15.2C78.9869 13.9733 78.6402 13.04 77.9469 12.4C77.2535 11.7333 76.0002 11.4 74.1869 11.4C72.4802 11.4 71.2535 11.72 70.5069 12.36C69.7869 13 69.4269 13.7867 69.4269 14.72V15.2H66.0269C66.0002 15.04 65.9869 14.7467 65.9869 14.32C65.9869 12.4533 66.7602 11.0133 68.3069 10C69.8535 8.98667 71.9202 8.48 74.5069 8.48C77.1202 8.48 79.1069 9.02667 80.4669 10.12C81.8269 11.2133 82.5069 12.76 82.5069 14.76V26.16C82.5069 26.64 82.6402 27 82.9069 27.24C83.1735 27.4533 83.5069 27.56 83.9069 27.56H85.5069V29.84C84.8135 30.16 83.9069 30.32 82.7869 30.32C81.8802 30.32 81.1202 30.0533 80.5069 29.52C79.8935 28.96 79.4802 28.2267 79.2669 27.32H78.9869C78.2669 28.3067 77.2802 29.08 76.0269 29.64C74.8002 30.2 73.4402 30.48 71.9469 30.48ZM72.8669 27.56C73.9069 27.56 74.8935 27.3467 75.8269 26.92C76.7602 26.4933 77.5202 25.8667 78.1069 25.04C78.6935 24.1867 78.9869 23.16 78.9869 21.96V20.44C75.5469 20.44 72.9602 20.72 71.2269 21.28C69.5202 21.8133 68.6669 22.84 68.6669 24.36C68.6669 25.5067 69.0135 26.3333 69.7069 26.84C70.4269 27.32 71.4802 27.56 72.8669 27.56ZM89.2134 11.88H86.1334V8.96H89.2134V5.6C89.2134 4.21333 89.5601 3.06666 90.2534 2.16C90.9468 1.22667 92.1201 0.76 93.7734 0.76C94.3068 0.76 94.8401 0.813332 95.3734 0.919998C95.9334 0.999998 96.4001 1.10667 96.7734 1.24V3.68H94.6934C93.3868 3.68 92.7334 4.32 92.7334 5.6V8.96H96.7734V11.88H92.7334V30H89.2134V11.88ZM108.506 30.48C105.12 30.48 102.6 29.5867 100.946 27.8C99.2929 26.0133 98.4663 23.24 98.4663 19.48C98.4663 15.72 99.2929 12.9467 100.946 11.16C102.6 9.37333 105.12 8.48 108.506 8.48C111.546 8.48 113.813 9.29333 115.306 10.92C116.826 12.52 117.586 15.1067 117.586 18.68V20.44H102.106C102.24 22.8667 102.813 24.6667 103.826 25.84C104.866 26.9867 106.426 27.56 108.506 27.56C110.186 27.56 111.546 27.1733 112.586 26.4C113.626 25.6267 114.146 24.44 114.146 22.84H117.586C117.586 25.2933 116.733 27.1867 115.026 28.52C113.346 29.8267 111.173 30.48 108.506 30.48ZM113.906 17.52C113.906 13.44 112.106 11.4 108.506 11.4C106.506 11.4 105 11.88 103.986 12.84C103 13.8 102.4 15.36 102.186 17.52H113.906Z" fill="white"/>
<path d="M12.2938 86.48C10.1871 86.48 8.25375 86.16 6.49375 85.52C4.76042 84.8533 3.37375 83.88 2.33375 82.6C1.29375 81.32 0.77375 79.7733 0.77375 77.96L0.81375 77.08H6.69375L6.65375 77.72C6.65375 78.8933 7.17375 79.8267 8.21375 80.52C9.25375 81.2133 10.7071 81.56 12.5738 81.56C14.5471 81.56 15.9738 81.3067 16.8538 80.8C17.7338 80.2667 18.1738 79.56 18.1738 78.68C18.1738 77.9067 17.8804 77.2667 17.2938 76.76C16.7338 76.2267 16.0138 75.8133 15.1338 75.52C14.2804 75.2 13.0938 74.8267 11.5738 74.4C9.41375 73.7867 7.66708 73.2 6.33375 72.64C5.00042 72.08 3.85375 71.2533 2.89375 70.16C1.93375 69.04 1.45375 67.5733 1.45375 65.76C1.45375 63.2533 2.46708 61.3467 4.49375 60.04C6.52042 58.7333 9.21375 58.08 12.5738 58.08C15.7471 58.08 18.3338 58.76 20.3338 60.12C22.3604 61.4533 23.3738 63.4667 23.3738 66.16V66.64H17.6138V66.28C17.6138 65.2667 17.1471 64.4667 16.2138 63.88C15.3071 63.2933 14.0671 63 12.4938 63C10.8138 63 9.52042 63.2267 8.61375 63.68C7.73375 64.1333 7.29375 64.76 7.29375 65.56C7.29375 66.1733 7.56042 66.7067 8.09375 67.16C8.62708 67.5867 9.29375 67.9467 10.0938 68.24C10.8938 68.5067 12.0271 68.84 13.4938 69.24C15.6804 69.8267 17.4671 70.4133 18.8538 71C20.2671 71.56 21.4804 72.4 22.4938 73.52C23.5071 74.64 24.0138 76.1067 24.0138 77.92C24.0138 80.8533 22.9604 83.0133 20.8538 84.4C18.7738 85.7867 15.9204 86.48 12.2938 86.48ZM37.2934 86.48C33.9068 86.48 31.3734 85.5867 29.6934 83.8C28.0401 82.0133 27.2134 79.24 27.2134 75.48C27.2134 71.72 28.0401 68.9467 29.6934 67.16C31.3734 65.3733 33.9068 64.48 37.2934 64.48C40.4134 64.48 42.7468 65.3867 44.2934 67.2C45.8401 68.9867 46.6134 71.7467 46.6134 75.48V76.76H32.7734C32.8268 78.6267 33.2001 80.0133 33.8934 80.92C34.5868 81.8 35.7468 82.24 37.3734 82.24C38.5201 82.24 39.4401 81.92 40.1334 81.28C40.8534 80.64 41.2134 79.7333 41.2134 78.56H46.6134C46.6134 81.2 45.7601 83.1867 44.0534 84.52C42.3468 85.8267 40.0934 86.48 37.2934 86.48ZM40.9334 73.12C40.9334 70.2133 39.7201 68.76 37.2934 68.76C35.9068 68.76 34.8534 69.12 34.1334 69.84C33.4401 70.56 33.0134 71.6533 32.8534 73.12H40.9334ZM59.56 86.48C56.2 86.48 53.68 85.5867 52 83.8C50.3467 82.0133 49.52 79.24 49.52 75.48C49.52 71.7467 50.3467 68.9867 52 67.2C53.68 65.3867 56.2 64.48 59.56 64.48C62.36 64.48 64.5867 65.2 66.24 66.64C67.92 68.0533 68.76 70.1333 68.76 72.88H63.24C63.24 71.6 62.9067 70.6133 62.24 69.92C61.5733 69.2267 60.64 68.88 59.44 68.88C57.9467 68.88 56.84 69.4133 56.12 70.48C55.4267 71.52 55.08 73.08 55.08 75.16V75.8C55.08 77.88 55.44 79.4533 56.16 80.52C56.9067 81.56 58.0933 82.08 59.72 82.08C60.8667 82.08 61.7733 81.7333 62.44 81.04C63.1333 80.32 63.48 79.3333 63.48 78.08H68.76C68.76 80.8267 67.9333 82.92 66.28 84.36C64.6267 85.7733 62.3867 86.48 59.56 86.48ZM79.9066 86.48C77.7466 86.48 76.0399 85.8933 74.7866 84.72C73.5599 83.5467 72.9466 81.6667 72.9466 79.08V64.96H78.4266V77.92C78.4266 79.2267 78.7332 80.1733 79.3466 80.76C79.9599 81.3467 80.8666 81.64 82.0666 81.64C83.2932 81.64 84.3066 81.2133 85.1066 80.36C85.9332 79.48 86.3466 78.4 86.3466 77.12V64.96H91.8266V86H87.1466L86.7466 83.24H86.4666C84.7599 85.4 82.5732 86.48 79.9066 86.48ZM97.5197 64.96H102.2L102.64 68.36H102.92C103.373 67.16 103.96 66.2133 104.68 65.52C105.4 64.8267 106.346 64.48 107.52 64.48C108.293 64.48 108.986 64.6 109.6 64.84V69.96H108.08C106.293 69.96 105 70.4533 104.2 71.44C103.4 72.4 103 73.8667 103 75.84V86H97.5197V64.96ZM113.027 57.08H118.507V62.28H113.027V57.08ZM113.027 64.96H118.507V86H113.027V64.96ZM129.839 86.48C127.866 86.48 126.453 85.9467 125.599 84.88C124.746 83.8133 124.319 82.4667 124.319 80.84V69.44H121.799V64.96H124.439L125.359 59.04H129.799V64.96H133.439V69.44H129.799V80.28C129.799 81.4267 130.373 82 131.519 82H133.439V85.84C132.986 86 132.413 86.1467 131.719 86.28C131.053 86.4133 130.426 86.48 129.839 86.48ZM140.72 93.28C139.253 93.28 138 93.1067 136.96 92.76V88.92H139.56C140.493 88.92 141.253 88.6933 141.84 88.24C142.426 87.7867 142.906 87.04 143.28 86L135.04 64.96H140.76L144.72 74.84C145.12 75.88 145.613 77.7067 146.2 80.32H146.4C147.04 77.8667 147.533 76.0533 147.88 74.88L151 64.96H156.56L149.48 84.92C148.84 86.68 148.173 88.1467 147.48 89.32C146.786 90.52 145.88 91.48 144.76 92.2C143.666 92.92 142.32 93.28 140.72 93.28Z" fill="url(#paint0_linear_3734_20810)"/>
<defs>
<linearGradient id="paint0_linear_3734_20810" x1="-1" y1="-11" x2="160.313" y2="-6.00539" gradientUnits="userSpaceOnUse">
<stop stop-color="#8AD4EC"/>
<stop offset="0.217372" stop-color="#EF96FF"/>
<stop offset="0.540308" stop-color="#FF56A9"/>
<stop offset="0.852826" stop-color="#FFAA6C"/>
</linearGradient>
</defs>
</svg>
