<svg width="216" height="86" viewBox="0 0 216 86" fill="none" xmlns="http://www.w3.org/2000/svg">
<path d="M13.5538 29.48C4.70042 29.48 0.27375 24.7467 0.27375 15.28C0.27375 10.5333 1.43375 6.98667 3.75375 4.64C6.07375 2.26667 9.34042 1.08 13.5538 1.08C15.8738 1.08 17.9538 1.48 19.7938 2.28C21.6604 3.05333 23.1271 4.25333 24.1938 5.88C25.2871 7.48 25.8338 9.44 25.8338 11.76H19.8738C19.8738 9.97333 19.3004 8.57333 18.1538 7.56C17.0071 6.52 15.5138 6 13.6738 6C11.1671 6 9.30042 6.74666 8.07375 8.24C6.84708 9.73333 6.23375 11.88 6.23375 14.68V15.88C6.23375 21.6667 8.71375 24.56 13.6738 24.56C15.6204 24.56 17.1671 24.0533 18.3138 23.04C19.4871 22.0267 20.0738 20.6267 20.0738 18.84H25.8338C25.8338 21.1867 25.3004 23.16 24.2338 24.76C23.1671 26.3333 21.7138 27.52 19.8738 28.32C18.0338 29.0933 15.9271 29.48 13.5538 29.48ZM39.6609 29.48C36.0609 29.48 33.3809 28.5867 31.6209 26.8C29.8609 25.0133 28.9809 22.24 28.9809 18.48C28.9809 14.72 29.8609 11.9467 31.6209 10.16C33.3809 8.37333 36.0609 7.48 39.6609 7.48C43.2609 7.48 45.9409 8.37333 47.7009 10.16C49.4876 11.9467 50.3809 14.72 50.3809 18.48C50.3809 22.24 49.4876 25.0133 47.7009 26.8C45.9409 28.5867 43.2609 29.48 39.6609 29.48ZM39.6609 25C41.4476 25 42.7409 24.4933 43.5409 23.48C44.3409 22.44 44.7409 20.88 44.7409 18.8V18.16C44.7409 16.08 44.3409 14.5333 43.5409 13.52C42.7409 12.48 41.4476 11.96 39.6609 11.96C37.8743 11.96 36.5809 12.48 35.7809 13.52C35.0076 14.5333 34.6209 16.08 34.6209 18.16V18.8C34.6209 20.88 35.0076 22.44 35.7809 23.48C36.5809 24.4933 37.8743 25 39.6609 25ZM54.7541 7.96H59.4341L59.8341 10.72H60.1141C61.8207 8.56 64.0074 7.48 66.6741 7.48C68.8341 7.48 70.5274 8.06667 71.7541 9.24C73.0074 10.4133 73.6341 12.2933 73.6341 14.88V29H68.1541V16.04C68.1541 14.7333 67.8474 13.7867 67.2341 13.2C66.6207 12.6133 65.7141 12.32 64.5141 12.32C63.2874 12.32 62.2607 12.76 61.4341 13.64C60.6341 14.4933 60.2341 15.56 60.2341 16.84V29H54.7541V7.96ZM76.7272 7.96H82.4472L85.7272 17C86.1005 18.0133 86.6872 20.12 87.4872 23.32H87.6872C88.4339 20.3067 89.0205 18.2 89.4472 17L92.6872 7.96H98.2472L90.3672 29H84.5672L76.7272 7.96ZM110.114 29.48C106.727 29.48 104.194 28.5867 102.514 26.8C100.86 25.0133 100.034 22.24 100.034 18.48C100.034 14.72 100.86 11.9467 102.514 10.16C104.194 8.37333 106.727 7.48 110.114 7.48C113.234 7.48 115.567 8.38667 117.114 10.2C118.66 11.9867 119.434 14.7467 119.434 18.48V19.76H105.594C105.647 21.6267 106.02 23.0133 106.714 23.92C107.407 24.8 108.567 25.24 110.194 25.24C111.34 25.24 112.26 24.92 112.954 24.28C113.674 23.64 114.034 22.7333 114.034 21.56H119.434C119.434 24.2 118.58 26.1867 116.874 27.52C115.167 28.8267 112.914 29.48 110.114 29.48ZM113.754 16.12C113.754 13.2133 112.54 11.76 110.114 11.76C108.727 11.76 107.674 12.12 106.954 12.84C106.26 13.56 105.834 14.6533 105.674 16.12H113.754ZM123.66 7.96H128.34L128.74 10.72H129.02C130.727 8.56 132.914 7.48 135.58 7.48C137.74 7.48 139.434 8.06667 140.66 9.24C141.914 10.4133 142.54 12.2933 142.54 14.88V29H137.06V16.04C137.06 14.7333 136.754 13.7867 136.14 13.2C135.527 12.6133 134.62 12.32 133.42 12.32C132.194 12.32 131.167 12.76 130.34 13.64C129.54 14.4933 129.14 15.56 129.14 16.84V29H123.66V7.96ZM148.073 0.079998H153.553V5.28H148.073V0.079998ZM148.073 7.96H153.553V29H148.073V7.96ZM167.926 29.48C164.54 29.48 162.006 28.5867 160.326 26.8C158.673 25.0133 157.846 22.24 157.846 18.48C157.846 14.72 158.673 11.9467 160.326 10.16C162.006 8.37333 164.54 7.48 167.926 7.48C171.046 7.48 173.38 8.38667 174.926 10.2C176.473 11.9867 177.246 14.7467 177.246 18.48V19.76H163.406C163.46 21.6267 163.833 23.0133 164.526 23.92C165.22 24.8 166.38 25.24 168.006 25.24C169.153 25.24 170.073 24.92 170.766 24.28C171.486 23.64 171.846 22.7333 171.846 21.56H177.246C177.246 24.2 176.393 26.1867 174.686 27.52C172.98 28.8267 170.726 29.48 167.926 29.48ZM171.566 16.12C171.566 13.2133 170.353 11.76 167.926 11.76C166.54 11.76 165.486 12.12 164.766 12.84C164.073 13.56 163.646 14.6533 163.486 16.12H171.566ZM181.473 7.96H186.153L186.553 10.72H186.833C188.539 8.56 190.726 7.48 193.393 7.48C195.553 7.48 197.246 8.06667 198.473 9.24C199.726 10.4133 200.353 12.2933 200.353 14.88V29H194.873V16.04C194.873 14.7333 194.566 13.7867 193.953 13.2C193.339 12.6133 192.433 12.32 191.233 12.32C190.006 12.32 188.979 12.76 188.153 13.64C187.353 14.4933 186.953 15.56 186.953 16.84V29H181.473V7.96ZM211.566 29.48C209.593 29.48 208.179 28.9467 207.326 27.88C206.473 26.8133 206.046 25.4667 206.046 23.84V12.44H203.526V7.96H206.166L207.086 2.04H211.526V7.96H215.166V12.44H211.526V23.28C211.526 24.4267 212.099 25 213.246 25H215.166V28.84C214.713 29 214.139 29.1467 213.446 29.28C212.779 29.4133 212.153 29.48 211.566 29.48Z" fill="url(#paint0_linear_3734_20825)"/>
<path d="M13.3669 60.88H3.92688V57.56H26.6069V60.88H17.1669V85H13.3669V60.88ZM30.18 63.96H32.86L33.26 67.12H33.5C33.9 66.08 34.5 65.2133 35.3 64.52C36.1 63.8267 37.1533 63.48 38.46 63.48C39.18 63.48 39.8067 63.5867 40.34 63.8V67.2H38.86C37.3667 67.2 36.1267 67.64 35.14 68.52C34.18 69.3733 33.7 70.72 33.7 72.56V85H30.18V63.96ZM49.2203 85.48C47.407 85.48 45.7936 85.0533 44.3803 84.2C42.967 83.3467 42.2603 81.8 42.2603 79.56C42.2603 76.8667 43.4603 75.0267 45.8603 74.04C48.2603 73.0267 51.727 72.52 56.2603 72.52V70.2C56.2603 68.9733 55.9136 68.04 55.2203 67.4C54.527 66.7333 53.2736 66.4 51.4603 66.4C49.7536 66.4 48.527 66.72 47.7803 67.36C47.0603 68 46.7003 68.7867 46.7003 69.72V70.2H43.3003C43.2736 70.04 43.2603 69.7467 43.2603 69.32C43.2603 67.4533 44.0336 66.0133 45.5803 65C47.127 63.9867 49.1936 63.48 51.7803 63.48C54.3936 63.48 56.3803 64.0267 57.7403 65.12C59.1003 66.2133 59.7803 67.76 59.7803 69.76V81.16C59.7803 81.64 59.9136 82 60.1803 82.24C60.447 82.4533 60.7803 82.56 61.1803 82.56H62.7803V84.84C62.087 85.16 61.1803 85.32 60.0603 85.32C59.1536 85.32 58.3936 85.0533 57.7803 84.52C57.167 83.96 56.7536 83.2267 56.5403 82.32H56.2603C55.5403 83.3067 54.5536 84.08 53.3003 84.64C52.0736 85.2 50.7136 85.48 49.2203 85.48ZM50.1403 82.56C51.1803 82.56 52.167 82.3467 53.1003 81.92C54.0336 81.4933 54.7936 80.8667 55.3803 80.04C55.967 79.1867 56.2603 78.16 56.2603 76.96V75.44C52.8203 75.44 50.2336 75.72 48.5003 76.28C46.7936 76.8133 45.9403 77.84 45.9403 79.36C45.9403 80.5067 46.287 81.3333 46.9803 81.84C47.7003 82.32 48.7536 82.56 50.1403 82.56ZM65.7269 63.96H68.4069L68.8069 66.8H69.0869C70.6335 64.5867 72.9935 63.48 76.1669 63.48C78.2735 63.48 79.8869 64.0533 81.0069 65.2C82.1535 66.32 82.7269 68.1333 82.7269 70.64V85H79.2069V70.88C79.2069 69.2 78.8335 68.04 78.0869 67.4C77.3402 66.7333 76.2602 66.4 74.8469 66.4C73.8335 66.4 72.9002 66.6533 72.0469 67.16C71.1935 67.64 70.5135 68.3467 70.0069 69.28C69.5002 70.2133 69.2469 71.3067 69.2469 72.56V85H65.7269V63.96ZM95.1534 85.48C93.2068 85.48 91.5801 85.2 90.2734 84.64C88.9934 84.0533 88.0468 83.2933 87.4334 82.36C86.8201 81.4267 86.5134 80.4133 86.5134 79.32C86.5134 79 86.5134 78.7867 86.5134 78.68C86.5401 78.5467 86.5534 78.4667 86.5534 78.44H90.0334V78.84C90.0334 80.0933 90.5268 81.04 91.5134 81.68C92.5001 82.2933 93.7801 82.6 95.3534 82.6C96.7134 82.6 97.8334 82.3333 98.7134 81.8C99.6201 81.24 100.073 80.4667 100.073 79.48C100.073 78.7067 99.8201 78.08 99.3134 77.6C98.8068 77.0933 98.1801 76.7067 97.4334 76.44C96.6868 76.1467 95.6734 75.84 94.3934 75.52C92.8468 75.12 91.5801 74.72 90.5934 74.32C89.6334 73.92 88.8068 73.3333 88.1134 72.56C87.4468 71.76 87.1134 70.7333 87.1134 69.48C87.1134 67.64 87.8601 66.1867 89.3534 65.12C90.8734 64.0267 92.9134 63.48 95.4734 63.48C97.0734 63.48 98.4601 63.7467 99.6334 64.28C100.807 64.7867 101.687 65.48 102.273 66.36C102.887 67.2133 103.193 68.1733 103.193 69.24L103.153 70H99.7134V69.64C99.7134 68.7067 99.3401 67.9333 98.5934 67.32C97.8734 66.7067 96.7001 66.4 95.0734 66.4C93.4734 66.4 92.3534 66.6933 91.7134 67.28C91.0734 67.84 90.7534 68.4933 90.7534 69.24C90.7534 69.8533 90.9801 70.36 91.4334 70.76C91.8868 71.16 92.4468 71.48 93.1134 71.72C93.7801 71.96 94.7134 72.2267 95.9134 72.52C97.5668 72.9467 98.9134 73.3733 99.9534 73.8C100.993 74.2 101.873 74.8267 102.593 75.68C103.34 76.5067 103.713 77.6133 103.713 79C103.713 81.16 102.927 82.7867 101.353 83.88C99.8068 84.9467 97.7401 85.48 95.1534 85.48ZM113.673 85.48C111.86 85.48 110.247 85.0533 108.833 84.2C107.42 83.3467 106.713 81.8 106.713 79.56C106.713 76.8667 107.913 75.0267 110.313 74.04C112.713 73.0267 116.18 72.52 120.713 72.52V70.2C120.713 68.9733 120.367 68.04 119.673 67.4C118.98 66.7333 117.727 66.4 115.913 66.4C114.207 66.4 112.98 66.72 112.233 67.36C111.513 68 111.153 68.7867 111.153 69.72V70.2H107.753C107.727 70.04 107.713 69.7467 107.713 69.32C107.713 67.4533 108.487 66.0133 110.033 65C111.58 63.9867 113.647 63.48 116.233 63.48C118.847 63.48 120.833 64.0267 122.193 65.12C123.553 66.2133 124.233 67.76 124.233 69.76V81.16C124.233 81.64 124.367 82 124.633 82.24C124.9 82.4533 125.233 82.56 125.633 82.56H127.233V84.84C126.54 85.16 125.633 85.32 124.513 85.32C123.607 85.32 122.847 85.0533 122.233 84.52C121.62 83.96 121.207 83.2267 120.993 82.32H120.713C119.993 83.3067 119.007 84.08 117.753 84.64C116.527 85.2 115.167 85.48 113.673 85.48ZM114.593 82.56C115.633 82.56 116.62 82.3467 117.553 81.92C118.487 81.4933 119.247 80.8667 119.833 80.04C120.42 79.1867 120.713 78.16 120.713 76.96V75.44C117.273 75.44 114.687 75.72 112.953 76.28C111.247 76.8133 110.393 77.84 110.393 79.36C110.393 80.5067 110.74 81.3333 111.433 81.84C112.153 82.32 113.207 82.56 114.593 82.56ZM138.18 85.48C134.98 85.48 132.633 84.6 131.14 82.84C129.647 81.0533 128.9 78.2667 128.9 74.48C128.9 70.72 129.647 67.9467 131.14 66.16C132.66 64.3733 135.007 63.48 138.18 63.48C141.06 63.48 143.167 64.1733 144.5 65.56C145.833 66.9467 146.5 69.0133 146.5 71.76H142.9C142.9 69.8667 142.553 68.5067 141.86 67.68C141.193 66.8267 139.967 66.4 138.18 66.4C136.233 66.4 134.807 67.04 133.9 68.32C132.993 69.5733 132.54 71.6267 132.54 74.48V74.64C132.54 77.4667 132.98 79.4933 133.86 80.72C134.74 81.9467 136.18 82.56 138.18 82.56C139.94 82.56 141.193 82.12 141.94 81.24C142.713 80.3333 143.1 78.9867 143.1 77.2H146.5C146.5 79.6 145.82 81.5867 144.46 83.16C143.1 84.7067 141.007 85.48 138.18 85.48ZM154.94 85.44C153.5 85.44 152.447 85.0133 151.78 84.16C151.113 83.3067 150.78 82.2533 150.78 81V66.88H148.22V63.96H150.82L151.58 58.12H154.3V63.96H157.86V66.88H154.3V80.68C154.3 81.9333 154.887 82.56 156.06 82.56H157.86V84.88C157.513 85.04 157.06 85.1733 156.5 85.28C155.94 85.3867 155.42 85.44 154.94 85.44ZM161.313 56.08H164.793V59.88H161.313V56.08ZM161.313 63.96H164.833V85H161.313V63.96ZM178.62 85.48C175.393 85.48 172.967 84.5867 171.34 82.8C169.713 80.9867 168.9 78.2133 168.9 74.48C168.9 70.7467 169.713 67.9867 171.34 66.2C172.967 64.3867 175.393 63.48 178.62 63.48C181.847 63.48 184.273 64.3867 185.9 66.2C187.527 67.9867 188.34 70.7467 188.34 74.48C188.34 78.2133 187.527 80.9867 185.9 82.8C184.273 84.5867 181.847 85.48 178.62 85.48ZM178.62 82.56C180.753 82.56 182.3 81.9467 183.26 80.72C184.22 79.4667 184.7 77.44 184.7 74.64V74.32C184.7 71.52 184.22 69.5067 183.26 68.28C182.3 67.0267 180.753 66.4 178.62 66.4C176.487 66.4 174.94 67.0267 173.98 68.28C173.02 69.5067 172.54 71.52 172.54 74.32V74.64C172.54 77.44 173.02 79.4667 173.98 80.72C174.94 81.9467 176.487 82.56 178.62 82.56ZM192.407 63.96H195.087L195.487 66.8H195.767C197.313 64.5867 199.673 63.48 202.847 63.48C204.953 63.48 206.567 64.0533 207.687 65.2C208.833 66.32 209.407 68.1333 209.407 70.64V85H205.887V70.88C205.887 69.2 205.513 68.04 204.767 67.4C204.02 66.7333 202.94 66.4 201.527 66.4C200.513 66.4 199.58 66.6533 198.727 67.16C197.873 67.64 197.193 68.3467 196.687 69.28C196.18 70.2133 195.927 71.3067 195.927 72.56V85H192.407V63.96Z" fill="white"/>
<defs>
<linearGradient id="paint0_linear_3734_20825" x1="-40" y1="-12" x2="260.47" y2="5.36994" gradientUnits="userSpaceOnUse">
<stop stop-color="#8AD4EC"/>
<stop offset="0.217372" stop-color="#EF96FF"/>
<stop offset="0.540308" stop-color="#FF56A9"/>
<stop offset="0.852826" stop-color="#FFAA6C"/>
</linearGradient>
</defs>
</svg>
